<?xml version="1.0" encoding="utf-8"?><svg version="1.1" id="Layer_1" xmlns="http://www.w3.org/2000/svg" xmlns:xlink="http://www.w3.org/1999/xlink" x="0px" y="0px"	 viewBox="0 0 190 44" style="enable-background:new 0 0 190 44;" xml:space="preserve"><style type="text/css">.st0{fill:#000000;stroke:#000000;stroke-width:0.3;stroke-miterlimit:10;}.st1{fill:#000000;stroke:#000000;stroke-width:0.3;}</style><path class="st0" d="M179.8,13c0,0,3.8,1.8,4.1,7c0,0,6.2-2.5,3.7-6.7c-2.5-4.3-7.7-0.4-7.7-0.4L179.8,13z"/><g><path class="st1" d="M20.8,27.9l3.6-14.3h3.2l-5.4,18.7h-2.6L15,18.2l-4.4,14.1H8L2.6,13.7h3.2l3.7,14l4.3-14h2.6L20.8,27.9z"/><path class="st1" d="M34,15.9c0.7-0.8,1.5-1.5,2.4-1.9s2-0.7,3.1-0.7c0.9,0,1.7,0.1,2.5,0.4c0.7,0.2,1.4,0.6,1.9,1.2		s0.9,1.2,1.2,2.1c0.3,0.9,0.4,1.9,0.4,3.1v12.2h-3.2V20.1c0-0.7-0.1-1.3-0.2-1.9c-0.2-0.5-0.4-0.9-0.7-1.3		c-0.3-0.3-0.7-0.6-1.2-0.7s-1-0.2-1.6-0.2c-1,0-1.9,0.3-2.7,0.8S34.4,18.1,34,19v13.3h-3.2V5.8H34V15.9z"/>	<path class="st1" d="M50.3,8.7c0-0.5,0.2-1,0.5-1.3c0.3-0.4,0.8-0.5,1.4-0.5c0.6,0,1.1,0.2,1.4,0.5c0.3,0.4,0.5,0.8,0.5,1.3		s-0.2,0.9-0.5,1.3c-0.3,0.3-0.8,0.5-1.4,0.5c-0.6,0-1.1-0.2-1.4-0.5S50.3,9.2,50.3,8.7z M53.7,32.3h-3.2V13.7h3.2V32.3z"/>	<path class="st1" d="M63.2,9.1v4.5h3.5v2.5h-3.5v11.6c0,0.5,0.1,0.9,0.2,1.2s0.3,0.5,0.5,0.7c0.2,0.2,0.4,0.3,0.7,0.3		c0.2,0.1,0.5,0.1,0.8,0.1s0.5,0,0.8-0.1c0.3-0.1,0.5-0.1,0.7-0.1v2.6c-0.3,0.1-0.6,0.1-1,0.2c-0.4,0.1-0.9,0.1-1.5,0.1		c-0.6,0-1.1-0.1-1.7-0.3c-0.5-0.2-1-0.4-1.4-0.8c-0.4-0.4-0.7-0.9-0.9-1.5c-0.2-0.6-0.3-1.4-0.3-2.4V16.1h-3.4v-2.5H60V9.1H63.2z"		/>	<path class="st1" d="M78.1,32.7c-1.3,0-2.5-0.2-3.5-0.7c-1.1-0.4-2-1.1-2.7-1.9c-0.7-0.8-1.3-1.8-1.7-2.9c-0.4-1.1-0.6-2.3-0.6-3.6		v-0.7c0-1.5,0.2-2.9,0.7-4.1c0.5-1.2,1.1-2.2,1.8-3c0.8-0.8,1.6-1.4,2.6-1.9c1-0.4,2-0.6,3.1-0.6c1.3,0,2.5,0.2,3.5,0.7		c1,0.5,1.8,1.1,2.4,1.9c0.6,0.8,1.1,1.8,1.4,2.9c0.3,1.1,0.4,2.3,0.4,3.6v1.4H72.8c0,0.9,0.2,1.7,0.4,2.4c0.3,0.7,0.6,1.4,1.1,1.9		c0.5,0.6,1.1,1,1.7,1.3c0.7,0.3,1.4,0.5,2.3,0.5c1.1,0,2.1-0.2,2.9-0.7s1.5-1.1,2.1-1.8l1.9,1.5c-0.3,0.5-0.7,0.9-1.1,1.3		c-0.4,0.4-0.9,0.8-1.5,1.2s-1.2,0.6-2,0.8S79,32.7,78.1,32.7z M77.7,15.9c-0.6,0-1.2,0.1-1.8,0.4c-0.5,0.2-1,0.6-1.4,1		c-0.4,0.4-0.8,1-1.1,1.7s-0.5,1.4-0.6,2.3h9.4V21c0-0.6-0.1-1.2-0.3-1.8c-0.2-0.6-0.4-1.2-0.8-1.6c-0.4-0.5-0.8-0.9-1.4-1.2		C79.2,16.1,78.5,15.9,77.7,15.9z"/>	<path class="st1" d="M105.4,23.2c0,2.9-0.7,5.2-2,6.9c-1.3,1.7-3.1,2.6-5.3,2.6c-1.9,0-3.4-0.7-4.6-2v8.8h-5V13.7h4.6l0.2,1.8		c1.2-1.4,2.8-2.2,4.7-2.2c2.3,0,4.1,0.9,5.4,2.6c1.3,1.7,1.9,4,1.9,7V23.2z M100.4,22.8c0-1.7-0.3-3.1-0.9-4		c-0.6-0.9-1.5-1.4-2.7-1.4c-1.6,0-2.6,0.6-3.2,1.8v7.6c0.6,1.2,1.7,1.8,3.3,1.8C99.2,28.6,100.4,26.7,100.4,22.8z"/>	<path class="st1" d="M119.3,32.3c-0.2-0.4-0.4-1-0.5-1.7c-1.2,1.3-2.8,2-4.7,2c-1.8,0-3.3-0.5-4.5-1.6c-1.2-1.1-1.8-2.4-1.8-4		c0-2,0.7-3.5,2.2-4.6c1.5-1.1,3.6-1.6,6.4-1.6h2.3v-1.1c0-0.9-0.2-1.6-0.7-2.1c-0.4-0.5-1.1-0.8-2.1-0.8c-0.8,0-1.5,0.2-2,0.6		c-0.5,0.4-0.7,1-0.7,1.7h-5c0-1.1,0.3-2.1,1-3s1.6-1.6,2.8-2.2c1.2-0.5,2.6-0.8,4.1-0.8c2.3,0,4.1,0.6,5.5,1.7c1.4,1.2,2,2.8,2,4.9		V28c0,1.8,0.3,3.1,0.7,4v0.3H119.3z M115.2,28.9c0.7,0,1.4-0.2,2-0.5s1.1-0.8,1.4-1.3v-3.2h-1.9c-2.5,0-3.8,0.9-4,2.6l0,0.3		c0,0.6,0.2,1.1,0.7,1.5C113.8,28.7,114.4,28.9,115.2,28.9z"/>	<path class="st1" d="M132,13.7l0.2,2.2c1.3-1.7,3.1-2.5,5.4-2.5c2,0,3.5,0.6,4.4,1.7c1,1.2,1.5,2.9,1.5,5.2v12.1h-5V20.4		c0-1.1-0.2-1.8-0.7-2.3c-0.5-0.5-1.2-0.7-2.3-0.7c-1.4,0-2.5,0.6-3.2,1.8v13.2h-5V13.7H132z"/>	<path class="st1" d="M146.4,22.9c0-2.9,0.7-5.2,2-7c1.3-1.7,3.1-2.6,5.4-2.6c1.8,0,3.3,0.7,4.5,2V5.8h5v26.5h-4.5l-0.2-2		c-1.2,1.6-2.8,2.3-4.8,2.3c-2.2,0-4-0.9-5.3-2.6C147.1,28.3,146.4,25.9,146.4,22.9z M151.4,23.2c0,1.8,0.3,3.1,0.9,4		c0.6,0.9,1.5,1.4,2.7,1.4c1.5,0,2.6-0.7,3.3-2v-7.4c-0.6-1.3-1.7-2-3.2-2C152.6,17.4,151.4,19.3,151.4,23.2z"/>	<path class="st1" d="M177.9,32.3c-0.2-0.4-0.4-1-0.5-1.7c-1.2,1.3-2.8,2-4.7,2c-1.8,0-3.3-0.5-4.5-1.6c-1.2-1.1-1.8-2.4-1.8-4		c0-2,0.7-3.5,2.2-4.6c1.5-1.1,3.6-1.6,6.4-1.6h2.3v-1.1c0-0.9-0.2-1.6-0.7-2.1c-0.4-0.5-1.1-0.8-2.1-0.8c-0.8,0-1.5,0.2-2,0.6		c-0.5,0.4-0.7,1-0.7,1.7h-5c0-1.1,0.3-2.1,1-3s1.6-1.6,2.8-2.2c1.2-0.5,2.6-0.8,4.1-0.8c2.3,0,4.1,0.6,5.5,1.7c1.4,1.2,2,2.8,2,4.9		V28c0,1.8,0.3,3.1,0.7,4v0.3H177.9z M173.8,28.9c0.7,0,1.4-0.2,2-0.5s1.1-0.8,1.4-1.3v-3.2h-1.9c-2.5,0-3.8,0.9-4,2.6l0,0.3		c0,0.6,0.2,1.1,0.7,1.5C172.5,28.7,173,28.9,173.8,28.9z"/></g><path class="st0" d="M169.2,13.3c0,0,2.8-2.2,8.1-0.8c0,0,0.4-6.6-4.5-6.2c-4.9,0.4-3.6,6.8-3.6,6.8L169.2,13.3z"/></svg>